/* XPM */
static char *_c8d1a90015d49feae07754d3bb2cb27fXJ1RtR8wozSMh3O[] = {
/* columns rows colors chars-per-pixel */
"64 64 127 2 ",
"   c None",
".  c #F78500",
"X  c #F68805",
"o  c #F78C0E",
"O  c #F78E12",
"+  c #F79016",
"@  c #F7941E",
"#  c #F79622",
"$  c #F89725",
"%  c #F79826",
"&  c #F89827",
"*  c #F79A2B",
"=  c #F89A2C",
"-  c #F79D32",
";  c #F89E33",
":  c #F8A037",
">  c #F7A039",
",  c #F8A23C",
"<  c #F7A541",
"1  c #F8A643",
"2  c #F9AA4C",
"3  c #F9AD54",
"4  c #F9AF58",
"5  c #F9B15B",
"6  c #FAB564",
"7  c #FAB768",
"8  c #FAB96C",
"9  c #FABC73",
"0  c #FABF79",
"q  c #FAC17D",
"w  c #FBC483",
"e  c #FBC789",
"r  c #FBC98D",
"t  c #FBCC94",
"y  c #FBCF9A",
"u  c #FBD09B",
"i  c #FBD29F",
"p  c #FCD19F",
"a  c #FCD09D",
"s  c #FBD2A0",
"d  c #FCD2A0",
"f  c #FCD2A1",
"g  c #FCD2A2",
"h  c #FCD3A3",
"j  c #FCD4A4",
"k  c #FCD5A6",
"l  c #FCD4A4",
"z  c #FCD6A8",
"x  c #FCD6A9",
"c  c #FCD7AC",
"v  c #FCD6AA",
"b  c #FCD8AD",
"n  c #FCDBB4",
"m  c #FDDBB4",
"M  c #FCDCB5",
"N  c #FCDCB6",
"B  c #FCDDB7",
"V  c #FDDDB8",
"C  c #FCDDB9",
"Z  c #FDDEBA",
"A  c #FCDEBB",
"S  c #FCDFBB",
"D  c #FDDFBC",
"F  c #FCDEB9",
"G  c #FDE0BD",
"H  c #FDE0BF",
"J  c #FDE0BF",
"K  c #FDE1C1",
"L  c #FDE2C1",
"P  c #FCE2C2",
"I  c #FDE3C4",
"U  c #FDE3C5",
"Y  c #FDE2C2",
"T  c #FDE5C8",
"R  c #FDE5C9",
"E  c #FDE6C9",
"W  c #FDE6CA",
"Q  c #FDE6CB",
"!  c #FDE7CC",
"~  c #FDE7CD",
"^  c #FDE7CE",
"/  c #FDE6CB",
"(  c #FDE8CE",
")  c #FDE9CF",
"_  c #FDE8CF",
"`  c #FDE9D2",
"'  c #FDEAD4",
"]  c #FDECD6",
"[  c #FDECD7",
"{  c #FEEBD3",
"}  c #FEEFDE",
"|  c #FDEEDB",
" . c #FEF0DF",
".. c #FEF1E1",
"X. c #FEF2E4",
"o. c #FEF2E5",
"O. c #FEF4E7",
"+. c #FEF2E4",
"@. c #FEF4E8",
"#. c #FEF5E9",
"$. c #FEF5EA",
"%. c #FEF5EB",
"&. c #FEF6EB",
"*. c #FEF6ED",
"=. c #FEF7ED",
"-. c #FFF7EF",
";. c #FEF5EB",
":. c #FFF8EF",
">. c #FEF8F1",
",. c #FEF8F2",
"<. c #FEF9F4",
"1. c #FFFAF5",
"2. c #FFFAF6",
"3. c #FEFBF6",
"4. c #FFFAF5",
"5. c #FFFBF8",
"6. c #FEFCF8",
"7. c #FFFCF8",
"8. c #FFFCF9",
"9. c #FFFCFA",
"0. c #FFFDFA",
"q. c #FFFDFC",
"w. c #FFFEFC",
"e. c #FFFEFD",
"r. c #FFFFFE",
"t. c white",
"y. c #FFFFFF",
/* pixels */
"                                                      2 < ; & # # & , < 3                                                       ",
"                                              , % @ + + + + @ # @ @ + + + + # = 1                                               ",
"                                        : # + + + @ # @ @ @ # @ @ @ @ @ @ @ @ + + + $ <                                         ",
"                                    ; + + @ @ @ # @ @ @ @ @ @ @ @ @ @ @ @ @ @ # @ # + + @ ,                                     ",
"                                - O @ @ @ @ @ @ @ @ @ @ @ @ @ @ @ @ @ @ @ @ @ # @ @ @ @ @ + + ,                                 ",
"                            1 + + @ @ @ @ @ @ @ @ @ @ @ @ @ @ @ @ @ @ @ @ @ @ @ @ @ @ # @ @ # + + 6                             ",
"                          = + @ @ @ @ @ @ @ @ @ @ @ @ @ # @ @ @ @ @ @ # @ @ @ @ @ @ @ @ @ @ @ @ @ + :                           ",
"                        + + @ @ @ @ @ @ @ # @ # # @ @ @ @ @ @ @ @ @ @ @ @ @ @ @ @ @ @ @ # @ @ @ @ @ + &                         ",
"                    3 O + # @ @ @ @ @ @ @ @ @ @ # @ @ @ @ @ @ @ @ @ @ @ @ @ @ @ @ @ @ # @ @ @ @ @ @ # + @                       ",
"                  5 o o o + # @ @ @ @ @ @ # @ @ @ @ @ @ # @ @ @ @ # @ @ @ @ @ @ @ @ @ @ # @ + o o o o O O @                     ",
"                3 o 6 y y 2 O # @ @ @ @ @ @ @ @ @ @ @ @ @ @ @ @ @ @ @ @ # @ @ @ @ @ @ @ o + < 8 e t e 6 ; + +                   ",
"                O o k r.r.9 o @ @ @ # @ @ @ @ @ @ @ @ @ @ @ @ @ @ @ @ @ @ @ @ @ @ @ + + 6 J 9.r.r.r.r.r.,.5 o @                 ",
"              + @ o f r.r.8 O @ @ @ @ @ @ @ # @ @ @ @ @ @ @ @ @ # @ @ # @ @ @ @ @ O = n r.r.r.r.r.r.r.r.r.8 o + &               ",
"            & + @ o f r.r.8 o @ @ @ @ @ @ @ @ @ @ @ @ @ @ @ # @ @ @ @ @ @ @ @ # + ; [ r.r.r.@.k w 9 e C 9.8 o @ O 1             ",
"          3 O @ @ o f r.r.8 O @ @ @ @ @ @ @ @ @ @ @ # @ @ @ @ @ @ @ @ @ @ @ @ + # ` r.r.9.r = O o O o O 1 < + @ @ O             ",
"          O @ @ @ o p r.r.8 O @ # @ @ @ @ @ @ @ @ @ @ @ @ @ @ @ @ @ @ @ @ @ @ O t r.r.*.4 X + # @ @ @ @ + + # @ # + #           ",
"        ; + @ @ @ o p r.r.8 o @ @ @ @ @ @ @ @ @ @ @ @ @ # @ # @ @ @ @ @ @ @ + , 2.r.r.6 o @ @ @ @ @ @ @ @ @ @ @ @ @ O 3         ",
"        O @ @ @ @ o p r.r.8 O @ @ @ @ @ @ @ @ @ @ @ @ @ @ @ @ @ # @ @ @ # @ o r r.r.N o + @ @ @ @ @ @ @ @ # @ @ @ @ @ +         ",
"      * + @ @ @ @ O p r.r.8 O @ @ @ @ @ @ @ # @ @ @ # @ @ @ @ @ @ @ @ @ @ @ + E r.r.4 O @ @ @ # @ # @ @ @ @ @ @ @ # @ O 3       ",
"      O # @ @ @ @ O p r.r.8 O @ @ @ @ # @ @ @ @ @ @ @ @ @ @ @ @ @ @ @ @ @ + ; @.r.@.& + @ # @ @ @ @ @ @ @ @ @ @ @ @ @ @ @       ",
"    , + @ @ @ @ @ o p r.r.8 O @ @ @ @ @ @ @ @ @ @ @ @ @ @ @ @ @ @ @ @ @ @ + , 2.r.Q # @ @ @ @ @ @ @ @ @ @ @ @ @ # @ @ @ O 6     ",
"    @ @ @ @ @ @ @ o p r.r.8 o @ @ # @ @ @ @ @ # @ @ @ @ @ @ @ @ @ @ @ @ @ + 1 2.r.( @ + @ @ @ @ @ @ @ @ @ @ @ @ @ @ @ @ + ;     ",
"    O @ @ @ @ @ @ O p r.r.8 o @ @ @ @ @ @ @ @ @ @ @ @ @ @ # @ @ @ @ @ # @ + * @.r.@.* + @ @ @ @ @ @ @ # @ @ @ @ @ @ @ @ @ +     ",
"  1 + @ @ # @ @ @ O f r.e.8 O @ @ @ @ @ @ @ @ @ @ @ @ @ @ @ @ @ @ @ @ @ @ # + R r.r.4 O # @ @ @ @ @ @ @ @ @ @ # @ @ @ @ @ O 9   ",
"  % + @ @ @ @ @ # o f r.r.8 O @ @ @ # @ O O O O + O O O O @ # # @ @ @ @ @ @ o e r.r.N o @ @ @ @ @ @ @ @ @ @ @ @ @ @ @ @ @ + ,   ",
"  @ # @ @ @ @ @ @ o f r.r.8 O @ # + o + 1 0 p N D N p 9 1 + O + # @ @ @ @ # o , 9.r.r.8 o @ @ @ @ @ @ @ @ @ # @ @ @ @ @ @ + *   ",
"  + @ @ @ @ @ # @ o f r.r.8 O @ O # 9 R e.r.r.r.r.r.r.r.9.U 8 @ O @ @ # + o , T r.r.r.,.5 o O @ @ @ @ @ + + # @ @ @ # @ @ @ @   ",
"2 + @ @ @ @ @ @ @ O f r.r.8 o o 3 ` r.r.r.r.r.r.r.r.r.r.r.r.r.Q 2 o @ + o 7 &.r.r.r.r.r.9.t ; O o O o O 2 1 + @ @ @ @ @ @ @ +   ",
": + @ @ @ @ @ @ @ O f r.r.8 X w e.r.r.r...g 9 3 2 3 9 h o.r.r.r.9.q o + t r.r.r.*.9 R r.r.r.*.n e 0 t C 9.8 o @ @ @ @ @ @ # + 2 ",
"= @ @ @ # @ @ @ @ o f r.9.6 e r.r.r.| 9 $ O o O O O o O & 0 o.r.r.r.t C r.r.r.~ : X & c r.r.r.r.r.r.r.r.r.8 o @ @ @ @ # @ @ + : ",
"& @ @ @ @ @ @ @ @ O p r.r.Q r.r.r.c & o + @ # @ # @ # @ + o = C r.r.r.r.r.r.s # O # + O 5 D 2.r.r.r.r.r.:.3 O @ @ @ @ @ @ @ # & ",
"# @ @ @ @ @ @ @ @ o f r.r.r.r.r.y O + # # @ @ @ @ @ @ @ # @ O O l r.r.r.@.8 O + # @ # @ O O : 6 w e w 5 ; + # @ @ @ @ @ @ @ @ % ",
"# @ @ # @ @ # @ @ o s r.r.r.r.N O + # @ @ @ @ @ @ @ @ # @ @ # + + K r.r.K o + # # @ @ @ @ @ O O O o o O + @ @ @ @ @ @ @ @ @ @ # ",
"$ @ @ @ @ @ @ @ @ O f r.r.r.@.* + @ @ @ @ @ @ @ @ @ @ @ @ @ @ @ O , *.r.r.4 O @ @ @ @ @ @ @ @ @ @ @ @ @ @ @ # @ @ @ @ @ @ @ @ = ",
"- + @ @ @ @ @ @ @ O s r.r.r.w o @ @ @ @ @ @ @ @ @ @ @ @ @ @ @ @ @ o t r.r.c O @ @ @ @ @ @ @ @ # @ @ @ @ @ @ @ @ @ @ @ # @ @ + < ",
"; + @ @ @ @ @ @ @ o p r.r.,.- + @ @ @ @ @ # @ # @ @ @ @ @ @ @ # @ O , ,.r.&.* + @ @ @ @ @ @ @ @ @ @ @ + @ @ @ @ @ @ @ @ @ # + 2 ",
"4 + # @ @ @ @ @ @ o p e.r.A O @ @ @ @ @ @ @ @ @ @ # @ @ @ @ @ @ @ @ + K r.r.4 O @ # @ @ @ @ # + O O @ # O + # @ @ # @ @ @ @ +   ",
"  + @ # @ # @ @ @ O p e.r.r O @ # @ @ @ @ @ @ @ @ @ @ @ @ @ @ @ @ @ o y r.r.9 o @ @ @ @ @ @ o ; w C [ [ P 2 O # @ @ @ @ @ @ @   ",
"  # @ @ @ @ @ @ @ O g r.r.9 O @ @ @ @ @ @ @ @ # @ @ @ @ @ @ # @ @ @ o w r.r.e O @ @ @ # + O 0 *.r.r.r.r.r.8 o @ @ @ @ @ # + =   ",
"  & + @ @ @ @ @ @ O p r.r.8 o @ # @ @ @ @ @ @ @ @ @ @ @ @ @ @ @ @ @ o q r.r.t o @ @ @ @ + s r.r.r.r.<.,.r.8 o @ @ @ @ @ @ + 1   ",
"  2 O # @ @ @ @ @ O t r.r.0 O @ @ @ # @ @ @ @ @ @ @ @ @ @ @ @ @ @ @ o e r.r.w o @ @ @ o w r.r.r.K 6 , ; 6 1 + @ @ @ @ @ @ O 0   ",
"    O @ @ @ @ @ @ o 9 r.r.y o @ @ @ @ @ @ @ @ @ @ @ @ @ # @ @ @ @ @ O z r.r.8 O @ @ O , 2.r.r.t O O O + O + # @ @ @ @ @ @ @     ",
"    # @ @ # @ @ @ O 2 r.r.` + @ @ @ @ @ @ @ @ @ @ @ @ @ @ @ @ @ # + @ [ r.r.1 O @ @ O t r.r.A O + # @ @ @ @ @ @ @ # @ @ + :     ",
"    2 O @ @ @ @ @ @ $ ..r.r.2 O @ @ @ @ @ # @ @ # @ @ @ @ @ @ @ @ o 4 r.r.Q o o o o O R r.r.3 O # @ @ @ @ @ @ @ @ @ @ @ O       ",
"      O @ @ @ @ @ @ O y r.r.c o @ @ @ @ @ @ @ @ @ @ @ @ @ @ @ @ @ O C r.r.( w e e e r 2.r.@.& + @ @ @ @ # @ @ @ @ @ @ + $       ",
"      : O # @ @ @ @ O 1 9.r.r.4 o @ @ @ @ @ @ @ @ @ @ @ @ @ @ @ o 6 r.r.r.r.r.r.r.r.r.r.r...$ @ @ @ @ @ @ @ @ @ @ @ @ O 5       ",
"        O # @ @ @ @ @ O y r.r.o.; O @ @ @ @ @ @ @ # @ @ @ @ @ o , @.r.r.r.r.r.r.r.e.r.r.r.<.; O @ @ @ @ @ @ @ @ # @ @ #         ",
"        1 O @ @ @ # @ + $ | r.r.| ; o @ @ @ @ # @ @ @ @ @ @ o 1 | r.r.| q w w w w w 0 Q r.r.w o @ @ # @ @ @ @ @ @ @ O 6         ",
"          + @ @ @ @ @ # o 2 *.r.r.@.8 O O + @ @ @ @ @ O o O 8 *.r.e.*.; X O o O O o . 6 r.r.*.1 o @ @ @ + @ @ @ @ + &           ",
"          5 O @ @ @ @ @ @ o 3 *.r.r.r.D 6 * + O O O O - 8 U r.r.r.@.2 O @ @ @ @ @ # + @ R r.r.o.5 + O O @ $ @ @ @ +             ",
"            ; + @ @ @ @ @ @ o 1 ` r.r.r.r.@.J h y l P *.r.r.r.r.R ; o @ @ @ @ @ @ @ @ O : @.r.r.r.` s y R 6 O @ o 4             ",
"              @ + # @ @ @ @ @ o # e @.r.r.r.r.r.r.r.r.r.r.r.o.e # + # @ @ @ @ @ @ @ @ @ O 1 [ r.r.r.r.r.r.8 O O ;               ",
"                + @ @ @ @ @ # @ + O = w P *.r.r.r.r.r.*.P 0 = O + # @ @ @ @ @ @ @ @ @ @ # O $ r | r.r.r.r.6 o #                 ",
"                  O @ @ @ @ @ @ @ @ + O + ; 2 8 8 8 2 ; + O + @ # @ @ @ @ @ @ @ @ @ @ @ @ @ + o $ 2 8 8 3 # @                   ",
"                    + @ @ @ @ @ @ @ @ @ @ + O O O O O + @ @ @ @ @ @ @ @ # @ @ @ @ @ # @ @ @ @ @ @ O O O o @                     ",
"                      + + # @ @ # @ @ @ @ @ @ @ @ @ @ @ @ @ @ @ @ @ @ @ @ @ @ @ @ @ @ @ # @ @ @ @ @ @ O $                       ",
"                        $ + @ @ @ @ @ @ @ @ @ @ @ @ @ @ @ # @ @ @ # @ @ # @ @ @ @ @ @ @ @ @ @ @ @ @ + :                         ",
"                          ; + @ @ @ @ # @ @ @ # @ @ # @ @ @ @ @ @ @ @ @ @ @ @ @ @ @ # @ @ @ @ @ + + 2                           ",
"                            3 # + @ @ @ @ @ @ @ @ @ @ @ @ @ @ @ @ @ @ @ # @ @ @ @ @ @ @ @ @ @ O =                               ",
"                                1 + O @ @ @ @ @ @ @ @ @ @ @ @ @ @ @ @ @ @ @ @ @ @ @ @ # @ O # 2                                 ",
"                                    1 @ + + @ # @ @ # @ # @ @ @ @ # @ @ @ @ @ @ # @ + + $ 2                                     ",
"                                        2 & @ + + @ @ @ @ @ @ @ @ @ @ @ @ @ @ + + # * 3                                         ",
"                                              1 ; % @ + + + @ @ @ + + + + # $ ; 2                                               ",
"                                                        3 1 = $ % ; 2 3                                                         "
};
