/* XPM */
static char *d34ff4fe0ece472bc0eca86ce800a3fbcC3mCDEVKIONq3vV[] = {
/* columns rows colors chars-per-pixel */
"32 32 234 2 ",
"   c None",
".  c #F68704",
"X  c #F78805",
"o  c #F68806",
"O  c #F78907",
"+  c #F68908",
"@  c #F78908",
"#  c #F78A08",
"$  c #F78A09",
"%  c #F78A0A",
"&  c #F78A0B",
"*  c #F78B0B",
"=  c #F68B0C",
"-  c #F78B0C",
";  c #F78C0D",
":  c #F68C0E",
">  c #F78C0E",
",  c #F78D0E",
"<  c #F68C0F",
"1  c #F78C0F",
"2  c #F68D0F",
"3  c #F78D0F",
"4  c #F78E0F",
"5  c #F78C10",
"6  c #F78D10",
"7  c #F78E10",
"8  c #F68E11",
"9  c #F78E11",
"0  c #F78E12",
"q  c #F78F12",
"w  c #F78F13",
"e  c #F78F14",
"r  c #F78F15",
"t  c #F79014",
"y  c #F79015",
"u  c #F79016",
"i  c #F79116",
"p  c #F79017",
"a  c #F79117",
"s  c #F79118",
"d  c #F79119",
"f  c #F79218",
"g  c #F79219",
"h  c #F7921A",
"j  c #F7921B",
"k  c #F7931B",
"l  c #F7931C",
"z  c #F7931D",
"x  c #F7941C",
"c  c #F7941D",
"v  c #F7941E",
"b  c #F7941F",
"n  c #F7951F",
"m  c #F8941F",
"M  c #F79520",
"N  c #F79521",
"B  c #F79621",
"V  c #F79622",
"C  c #F79623",
"Z  c #F79723",
"A  c #F79724",
"S  c #F79725",
"D  c #F89520",
"F  c #F89623",
"G  c #F89723",
"H  c #F89725",
"J  c #F89726",
"K  c #F89826",
"L  c #F89827",
"P  c #F79929",
"I  c #F79A2B",
"U  c #F79B2D",
"Y  c #F89928",
"T  c #F89929",
"R  c #F89A2A",
"E  c #F89A2B",
"W  c #F89B2C",
"Q  c #F89B2D",
"!  c #F89B2E",
"~  c #F89C2F",
"^  c #F89D30",
"/  c #F89D31",
"(  c #F89E32",
")  c #F89E33",
"_  c #F89E34",
"`  c #F89F34",
"'  c #F89F35",
"]  c #F89F36",
"[  c #F89F37",
"{  c #F8A036",
"}  c #F8A037",
"|  c #F8A038",
" . c #F8A23A",
".. c #F8A23B",
"X. c #F8A13C",
"o. c #F8A23C",
"O. c #F8A23D",
"+. c #F8A33D",
"@. c #F9A33D",
"#. c #F8A43F",
"$. c #F8A440",
"%. c #F8A542",
"&. c #F8A543",
"*. c #F8A643",
"=. c #F9A643",
"-. c #F8A644",
";. c #F9A644",
":. c #F8A746",
">. c #F8A747",
",. c #F9A847",
"<. c #F8A848",
"1. c #F8A948",
"2. c #F8A849",
"3. c #F9A849",
"4. c #F9A94C",
"5. c #F9AB4E",
"6. c #F9AB4F",
"7. c #F9AC50",
"8. c #F9AD51",
"9. c #F8AC52",
"0. c #F9AC52",
"q. c #F9AD53",
"w. c #F9AE55",
"e. c #F9AF56",
"r. c #F9AF57",
"t. c #F9B059",
"y. c #F9B05A",
"u. c #F9B15A",
"i. c #F9B15B",
"p. c #F9B35F",
"a. c #FAB25E",
"s. c #FAB35F",
"d. c #FAB360",
"f. c #FAB562",
"g. c #FAB563",
"h. c #F9B564",
"j. c #FAB564",
"k. c #FAB666",
"l. c #FAB667",
"z. c #FAB868",
"x. c #FAB86A",
"c. c #FABA6D",
"v. c #FABB71",
"b. c #FABC70",
"n. c #FABC73",
"m. c #FBC27F",
"M. c #FBC483",
"N. c #FAC583",
"B. c #FBC584",
"V. c #FBC585",
"C. c #FBC686",
"Z. c #FBC688",
"A. c #FBC789",
"S. c #FBCA8F",
"D. c #FBCA90",
"F. c #FCCB92",
"G. c #FBCD95",
"H. c #FCCC94",
"J. c #FBCE98",
"K. c #FCCE98",
"L. c #FCCE99",
"P. c #FCD09B",
"I. c #FBD09D",
"U. c #FCD09C",
"Y. c #FBD3A1",
"T. c #FCD1A0",
"R. c #FCD2A0",
"E. c #FDD3A3",
"W. c #FCD5A7",
"Q. c #FCD5A8",
"!. c #FCD6A9",
"~. c #FCD8AC",
"^. c #FCD9B1",
"/. c #FCDAB0",
"(. c #FCDAB1",
"). c #FDDBB3",
"_. c #FDDCB3",
"`. c #FDDCB6",
"'. c #FCDDB8",
"]. c #FDDDB8",
"[. c #FDDEB9",
"{. c #FDDEBA",
"}. c #FDDFBC",
"|. c #FDE0BF",
" X c #FDE1C0",
".X c #FDE2C1",
"XX c #FDE2C2",
"oX c #FDE3C4",
"OX c #FDE3C6",
"+X c #FDE3C7",
"@X c #FDE4C6",
"#X c #FDE4C7",
"$X c #FDE5C7",
"%X c #FEE4C6",
"&X c #FDE5C9",
"*X c #FDE7CC",
"=X c #FDE7CE",
"-X c #FEE8CF",
";X c #FDE9D1",
":X c #FEE9D1",
">X c #FDE9D2",
",X c #FEE9D2",
"<X c #FDEBD4",
"1X c #FEEAD4",
"2X c #FEEBD5",
"3X c #FDECD7",
"4X c #FEECD7",
"5X c #FEECD8",
"6X c #FEEDDA",
"7X c #FDEEDB",
"8X c #FEF2E3",
"9X c #FEF3E7",
"0X c #FEF4E8",
"qX c #FFF4E8",
"wX c #FEF4E9",
"eX c #FEF5EA",
"rX c #FEF5EB",
"tX c #FEF6EC",
"yX c #FFF7ED",
"uX c #FEF8F1",
"iX c #FEF9F2",
"pX c #FFF9F2",
"aX c #FEFAF5",
"sX c #FFFAF5",
"dX c #FFFBF6",
"fX c #FFFBF7",
"gX c #FFFCF8",
"hX c #FFFCF9",
"jX c #FFFCFA",
"kX c #FFFDFA",
"lX c #FFFDFB",
"zX c #FFFEFD",
"xX c #FFFFFE",
"cX c white",
/* pixels */
"                        $.' T C C T } $.                        ",
"                  ,.K v s s s v x x s s v T e.                  ",
"              >.G u x v C v v v v v C v v s u K                 ",
"            ' s s v v v v v v v v v v v v v v s u >.            ",
"          C 0 v v v v v v v v v v v v v v v 0 0 u 1 L           ",
"        A U.D.u v v v v v v v v v v v v s e i.~.&X].f.T         ",
"      } 1 6X|.0 x v v v v v v v v v v s v !.cX9X|.3X^.X 6.      ",
"    v.0 s ,X].0 v v v v v v v v v v v 0 U.cXm.v 0 x ^ m q       ",
"    C u s 1X].0 z v v v v v v v v v u -.cXS.* s v x s v u W     ",
"  f.0 v s ,X].0 z z v v v v v v v v 1 C.gX) u v v v v v v u     ",
"  P s v s 1X].0 v v v v v v v v v v 1 Y.rXv s v v v v v v u }   ",
"  0 C s s ,X].0 v z u 0 0 0 s v v v 1 N.gX) u v v v v v v v v   ",
"w.u v s s 1X].e 1 s %.z.n.e.P 0 s v 1 #.cXD.* u v s s v v v u   ",
"} s C s s ,X_.X i.-XcXcXcXcXuXG.L X I '.cXcXM.C 0 v ) v v v u 1.",
"K v v x s ,X_.m.cX1Xn.%. .w.E.cX1Xf.8XgXx.L.cXrX.X6X(.0 v v z Q ",
"v v v x s &XaXcXJ.s 1 u u 0 * 4.rXcX,X%.* u w.!.&X].f.u v v v C ",
"C v v v s &XcX^.1 s v v v v v 1 7.cXC.X v v 0 0 u t e v v v v C ",
"K z v s s &XgXO.0 v v v v v v v 1 (.rXZ x v v s 1 1 u v v v z W ",
"} s v z s ,X,Xs v v v v v v v v 1 h.cX,.u v u C p.C.9.s v v u 1.",
"9.u v z s 1X].0 v v v v v v v v t 4.cXi.0 e  .,XcXcX(.0 v v u   ",
"  u v v e oXoXe v v v v v v v v t i.cX6.1 C 6XrXi.^ } x v v v   ",
"  W x v 0 L.aXQ u v v v v v v v = F.uXL X h.cXw.* s u v v u  .  ",
"  z.0 v 0 1.cXA.* v v v v v m 9 I tXcXoX.XrXrXC s v v v v u     ",
"    K u v 0 W.cXi.* u x v s 1 m .XgX_.oX.X1XgXO.1 z v v u ^     ",
"      9 m s C oXcXD.} z s L i.3XcXf.= 0 4 Q uXoXQ u C z 0       ",
"      1.u v e G P.cXgX6X-XrXcX3X9.1 m v l 9 f.gXgX3XE.# 9.      ",
"        T s z s 0 #.C.~.].I.f.m 9 m v v m v 0 #.G.].c.^         ",
"          Q e C v u 1 0 t 1 q x v v v v v v v u 4 # }           ",
"            >.i s v v C v v v v v v v v v v v s u >.            ",
"                T s s v v v v v v v v v v s s Q                 ",
"                    Q v s s s v v z s s C Q                     ",
"                          #.^ Z C ^ $.                          "
};
