/* XPM */
static char *_52101b86dca45faf4bf02972dd6daa1lyQXDxyC3VMPOwKg[] = {
/* columns rows colors chars-per-pixel */
"32 32 215 2 ",
"   c None",
".  c #FF0002",
"X  c #FF0003",
"o  c #FF0005",
"O  c #FF0006",
"+  c #FF0106",
"@  c #FF0107",
"#  c #FF0207",
"$  c #FF0308",
"%  c #FF0409",
"&  c #FF040A",
"*  c #FF060B",
"=  c #FF060C",
"-  c #FF070C",
";  c #FF070D",
":  c #FF080D",
">  c #FF080E",
",  c #FF090E",
"<  c #FF090F",
"1  c #FF0A0F",
"2  c #FF0A10",
"3  c #FF0B10",
"4  c #FF0B11",
"5  c #FF0C11",
"6  c #FF0C12",
"7  c #FF0D12",
"8  c #FF0D13",
"9  c #FF0E13",
"0  c #FF0E14",
"q  c #FF0F14",
"w  c #FF0F15",
"e  c #FF1014",
"r  c #FF1015",
"t  c #FF1016",
"y  c #FF1116",
"u  c #FF1117",
"i  c #FF1217",
"p  c #FF1218",
"a  c #FF1318",
"s  c #FF1419",
"d  c #FF1519",
"f  c #FF151A",
"g  c #FF151B",
"h  c #FF161A",
"j  c #FF161B",
"k  c #FF171C",
"l  c #FF181D",
"z  c #FF191D",
"x  c #FF191E",
"c  c #FF191F",
"v  c #FF1A1E",
"b  c #FF1A1F",
"n  c #FF1B20",
"m  c #FF1C20",
"M  c #FF1C21",
"N  c #FF1D22",
"B  c #FF1E23",
"V  c #FF1E24",
"C  c #FF1F24",
"Z  c #FF2126",
"A  c #FF2227",
"S  c #FF2328",
"D  c #FF2429",
"F  c #FF2529",
"G  c #FF252A",
"H  c #FF262B",
"J  c #FF272B",
"K  c #FF272C",
"L  c #FF282C",
"P  c #FF282D",
"I  c #FF292E",
"U  c #FF2A2E",
"Y  c #FF2A2F",
"T  c #FF2C2F",
"R  c #FF2C30",
"E  c #FF2E32",
"W  c #FF2E33",
"Q  c #FF2F33",
"!  c #FF3135",
"~  c #FF3136",
"^  c #FF3236",
"/  c #FF3336",
"(  c #FF3337",
")  c #FF3338",
"_  c #FF3438",
"`  c #FF3539",
"'  c #FF353A",
"]  c #FF373B",
"[  c #FF373C",
"{  c #FF383C",
"}  c #FF3A3E",
"|  c #FF3A3F",
" . c #FF3C40",
".. c #FF3E42",
"X. c #FF3E43",
"o. c #FF4044",
"O. c #FF4145",
"+. c #FF4246",
"@. c #FF4346",
"#. c #FF4448",
"$. c #FF4548",
"%. c #FF464A",
"&. c #FF484C",
"*. c #FF494D",
"=. c #FF4B4F",
"-. c #FF4B50",
";. c #FF4E51",
":. c #FF4E52",
">. c #FF4F53",
",. c #FF5053",
"<. c #FF5054",
"1. c #FF5155",
"2. c #FF5457",
"3. c #FF5558",
"4. c #FF5559",
"5. c #FF565A",
"6. c #FF575A",
"7. c #FF595D",
"8. c #FF5A5E",
"9. c #FF5B5E",
"0. c #FF5B5F",
"q. c #FF6063",
"w. c #FF6064",
"e. c #FF6164",
"r. c #FF6264",
"t. c #FF6265",
"y. c #FF6266",
"u. c #FF6366",
"i. c #FF6669",
"p. c #FF676A",
"a. c #FF6B6E",
"s. c #FF6F72",
"d. c #FF7B7E",
"f. c #FF7E80",
"g. c #FF7F81",
"h. c #FF7F82",
"j. c #FF8082",
"k. c #FF8386",
"l. c #FF8689",
"z. c #FF8789",
"x. c #FF8C8F",
"c. c #FF8D8F",
"v. c #FF8F92",
"b. c #FF9194",
"n. c #FF9295",
"m. c #FF9396",
"M. c #FF9598",
"N. c #FF9799",
"B. c #FF9C9E",
"V. c #FF9EA0",
"C. c #FF9FA2",
"Z. c #FFA0A2",
"A. c #FFA1A3",
"S. c #FFA2A5",
"D. c #FFA5A7",
"F. c #FFA7A9",
"G. c #FFA9AB",
"H. c #FFAAAC",
"J. c #FFB0B1",
"K. c #FFB1B2",
"L. c #FFB2B3",
"P. c #FFB2B4",
"I. c #FFB3B5",
"U. c #FFB4B6",
"Y. c #FFB7B9",
"T. c #FFB9BA",
"R. c #FFBABC",
"E. c #FFBBBD",
"W. c #FFBDBF",
"Q. c #FFBFC1",
"!. c #FFC0C1",
"~. c #FFC0C2",
"^. c #FFC2C4",
"/. c #FFC4C5",
"(. c #FFC5C6",
"). c #FFC6C7",
"_. c #FFC7C9",
"`. c #FFC9CA",
"'. c #FFCACB",
"]. c #FFCCCD",
"[. c #FFCDCE",
"{. c #FFCFD0",
"}. c #FFD0D1",
"|. c #FFD2D3",
" X c #FFD3D5",
".X c #FFD4D5",
"XX c #FFD5D6",
"oX c #FFD5D7",
"OX c #FFD6D7",
"+X c #FFD6D8",
"@X c #FFD7D8",
"#X c #FFD7D9",
"$X c #FFD8D9",
"%X c #FFD9D9",
"&X c #FFD9DA",
"*X c #FFDADB",
"=X c #FFDCDD",
"-X c #FFDEDE",
";X c #FFDFE0",
":X c #FFE5E6",
">X c #FFE9EA",
",X c #FFEAEB",
"<X c #FFEDED",
"1X c #FFEEEE",
"2X c #FFEEEF",
"3X c #FFF0F0",
"4X c #FFF3F4",
"5X c #FFF4F4",
"6X c #FFF5F5",
"7X c #FFF7F7",
"8X c #FFFAFB",
"9X c #FFFBFB",
"0X c #FFFCFC",
"qX c #FFFEFE",
"wX c white",
/* pixels */
"                         .^ D l n D _  .                        ",
"                  @.C a y y a f f a y y f Z >.                  ",
"              ,.l w a k f k f k f k k k f f 9 B                 ",
"            Q 9 a k f f k f k f k f k f f f f f 9  .            ",
"          B > f f k f k f k f k f k k f k f 3 > 9 $ C           ",
"        B C.b.9 k f k f k f k f k f f k y 9 4.H.}.W.8.D         ",
"      _ - ;XQ.> f k f k f k f k f k f y f G.wX,XQ.$XP.o *.      ",
"    a.> y @XT.> k f k f k f k f k f k 3 C.wXd.k 3 f I f 3       ",
"    k y y oXT.3 f k f k f k f k f k w  .wXv.o a f f y k y D     ",
"  r.3 f y +XT.> k f k f k f k f k f ; k.8XI w k k f k f f 3     ",
"  Z a f y +XT.> f f f k k k k f f k > C.<Xl a f f k f k k y W   ",
"  9 f f y +XT.3 k f w > > 3 y k k f > f.9XI w k k f k f f f a   ",
"<.9 k f y +XT.> > f  .r.a.<.S ; y l > } wXx.o a k a y k k f 9   ",
"^ y f f w +XY.X 6.[.wXwXwXwX4Xm.Z o D Y.wXwXj.l 3 f R f f k w $.",
"Z f f f y +XP.f.wX$Xs. ._ >.S.wXoXr.:X9Xp.C.wX<X/.-XL.3 k f y I ",
"l f k f w [.6XwXN.y * 9 y 3 * $.<XwX X} $ 9 >.F.'.T.q.y f k f l ",
"k f k f y `.wXL.> a f k f k f * >.wXl.X f f 9 > 9 9 9 f f k f n ",
"S a k f y '.wX_ 9 f k f k f k f * L.,Xn f f f y > * 9 l k f a I ",
") y k a y  XoXy f f f k f k f k > r.wX@.9 k 9 l 9.f.>.y f k w @.",
"*.w k f y +XT.> f f k f k f k f 9 *.wX<.> 9 } oXwXwXU.> k f 9   ",
"  w f f 3 `.'.9 k k f k f k f k > 4.wX*.> l $X,X<.Q ^ f f f a   ",
"  K y k ; M.7XS y f k f k f k f * m.4XB o r.wX>.$ w w k k w _   ",
"  p.> k w @.wXl.o f f k f k k 9 D <XwX_.(.,X<XB a f k f f 3     ",
"    C y f 3 F.wX8.$ w f f a ; l ~.wXE.(.(.$X8X{ > f a k w R     ",
"      > f y n (.wXv.Q y y n 4.$XwXq.* 9 * I 6X(.I 9 l f 9       ",
"      $.3 k y l B.wXwX-XoX3XwX$X>.; f f f > 9.8XwX$XZ.o <.      ",
"        D 9 k y > } f.L.T.B.8.k > f f l f l > } b.E.a.^         ",
"          I 9 k f 9 > > 3 ; 3 a f k f l f f f w * o Q           ",
"             .w y f k f f k f k k f k f f k f a w @.            ",
"                Z 9 f f k f k f f k f k f y y Z                 ",
"                    D f y y y f f y y y f I                     ",
"                          { Q l B ! }                           "
};
