/* XPM */
static char *d1994731eed04a47932cf20a3ecc7ef2olXGoge7Q1xwuG83[] = {
/* columns rows colors chars-per-pixel */
"16 16 147 2 ",
"   c None",
".  c #F68300",
"X  c #F68804",
"o  c #F68806",
"O  c #F78806",
"+  c #F68906",
"@  c #F78907",
"#  c #F68908",
"$  c #F68B0B",
"%  c #F78B0B",
"&  c #F68B0C",
"*  c #F68B0D",
"=  c #F68C0D",
"-  c #F78C0D",
";  c #F68C0E",
":  c #F78C0E",
">  c #F68D0E",
",  c #F78D0E",
"<  c #F78D0F",
"1  c #F78D10",
"2  c #F78E10",
"3  c #F78E11",
"4  c #F78E12",
"5  c #F78F12",
"6  c #F78F13",
"7  c #F78F14",
"8  c #F79014",
"9  c #F79015",
"0  c #F79016",
"q  c #F79017",
"w  c #F79117",
"e  c #F79118",
"r  c #F79219",
"t  c #F7921A",
"y  c #F7921B",
"u  c #F7931B",
"i  c #F7931C",
"p  c #F7941D",
"a  c #F7941E",
"s  c #F7941F",
"d  c #F7951F",
"f  c #F8931C",
"g  c #F79520",
"h  c #F79521",
"j  c #F79620",
"k  c #F79621",
"l  c #F79622",
"z  c #F79723",
"x  c #F89724",
"c  c #F89826",
"v  c #F89827",
"b  c #F79928",
"n  c #F79929",
"m  c #F79B2E",
"M  c #F89928",
"N  c #F89A2A",
"B  c #F89A2B",
"V  c #F89B2C",
"C  c #F89B2E",
"Z  c #F89C2F",
"A  c #F89E33",
"S  c #F89F35",
"D  c #F89F36",
"F  c #F8A036",
"G  c #F9A038",
"H  c #F8A139",
"J  c #F8A13B",
"K  c #F8A23B",
"L  c #F8A23C",
"P  c #F9A23D",
"I  c #F8A33D",
"U  c #F8A33E",
"Y  c #F8A33F",
"T  c #F8A43F",
"R  c #F8A440",
"E  c #F9A746",
"W  c #F9A949",
"Q  c #F9A84A",
"!  c #F8AA4C",
"~  c #F9AA4C",
"^  c #F9AB4E",
"/  c #F9AC52",
"(  c #F8AD52",
")  c #F9AD52",
"_  c #F9AD53",
"`  c #F9AF57",
"'  c #F9B059",
"]  c #FAB059",
"[  c #F9B05A",
"{  c #FAB15B",
"}  c #F9B25D",
"|  c #FAB25C",
" . c #F9B35E",
".. c #FAB360",
"X. c #FAB361",
"o. c #F9B460",
"O. c #F9B665",
"+. c #FAB667",
"@. c #FAB96A",
"#. c #FAB96B",
"$. c #FBBA6D",
"%. c #FABC73",
"&. c #FBBD73",
"*. c #FBBD74",
"=. c #FABD75",
"-. c #FABE76",
";. c #FBBE77",
":. c #FBBF79",
">. c #FBC07B",
",. c #FAC17E",
"<. c #FBC17E",
"1. c #FBC17F",
"2. c #FAC27F",
"3. c #FBC280",
"4. c #FBC383",
"5. c #FBC483",
"6. c #FBC686",
"7. c #FBC78B",
"8. c #FBC88B",
"9. c #FCC98E",
"0. c #FBCC93",
"q. c #FBCD97",
"w. c #FCCD96",
"e. c #FCCE96",
"r. c #FCD09C",
"t. c #FCD09D",
"y. c #FCD19F",
"u. c #FCD3A2",
"i. c #FCD3A4",
"p. c #FCD4A4",
"a. c #FCD4A6",
"s. c #FCD6A9",
"d. c #FCD7AB",
"f. c #FCD7AC",
"g. c #FCDAB1",
"h. c #FDDCB6",
"j. c #FDDDB6",
"k. c #FDDDB8",
"l. c #FDDDB9",
"z. c #FDE0BE",
"x. c #FCE0BF",
"c. c #FDE2C3",
"v. c #FDE3C4",
"b. c #FEE5C8",
"n. c #FEE7CE",
"m. c #FEEBD6",
"M. c #FDEFDD",
/* pixels */
"          L M g g M L           ",
"      J d e e d d d e 9 T       ",
"     .D e d g p d e e  .*.(     ",
"  ( ;.:.1 g f p u w 0.p.1.J X.  ",
"  < 1.&.1 d p p 9 ( f., < w g   ",
"] o 3.&.o 7 9 3 3 o.8.# u u w ] ",
"Z & 1.#.` u.p.>.9 O.M.Q v b w S ",
"d 1 ;.m.t.Q R 7.b.u.] d.h.( 1 g ",
"g 1 1.v.3 7 9 o e.;.o < d e d g ",
"m & 3.;., p p w Q t.o  .d.Q 8 F ",
"] o &.6.& p f 1 ] r.J l.E b 8 ] ",
"  e m z.J % < p h.c.n.0.. 8 v   ",
"  o.# ` l.0.3.h.>.e Z g.e.A     ",
"    J # C @.;.L 1 e w v @.O.    ",
"      Q e < < e d e e d         ",
"          T C g g A L           "
};
